<?xml version="1.0" encoding="utf-8"?>
<!-- Generator: Adobe Illustrator 23.0.3, SVG Export Plug-In . SVG Version: 6.00 Build 0)  -->
<svg version="1.1" id="Calque_1" xmlns="http://www.w3.org/2000/svg" xmlns:xlink="http://www.w3.org/1999/xlink" x="0px" y="0px"
	 viewBox="0 0 175.1 185.5" style="enable-background:new 0 0 175.1 185.5;" xml:space="preserve">
<style type="text/css">
	.st0{fill:#FFFFFF;}
</style>
<title>Fichier 1</title>
<g>
	<g id="Calque_1-2">
		<path class="st0" d="M136.7,106.9c0.3,2.4,0.5,4.8,0.5,7.2c0,3.6,5.6,3.6,5.6,0c0-2.9-0.3-5.8-0.7-8.7c-0.2-1.5-2.1-2.3-3.4-2
			C137.1,103.8,136.3,105.4,136.7,106.9z"/>
		<path class="st0" d="M113.4,64.7c-3.2-1.7-6,3.1-2.8,4.8c11.4,6.2,20.1,16.6,24.1,29c0.4,1.5,2,2.3,3.4,1.9c1.5-0.4,2.4-2,1.9-3.5
			c0,0,0,0,0,0C135.6,83.2,126.1,71.7,113.4,64.7z"/>
		<path class="st0" d="M81.4,119.9L81.4,119.9L81.4,119.9z"/>
		<path class="st0" d="M70.3,129c0-1.9-1.5-3.4-3.4-3.4c-1.9,0-3.4,1.5-3.4,3.4c0,1.9,1.5,3.4,3.4,3.4c0,0,0,0,0,0
			C68.8,132.4,70.3,130.9,70.3,129z"/>
		<circle class="st0" cx="73.7" cy="142.7" r="2"/>
		<path class="st0" d="M109.4,157.8c0,2.8,2.3,5.1,5.1,5.1c2.8,0,5.1-2.3,5.1-5.1c0-2.8-2.3-5.1-5.1-5.1c0,0,0,0,0,0
			C111.7,152.7,109.4,155,109.4,157.8z"/>
		<circle class="st0" cx="70.3" cy="159.7" r="2.5"/>
		<path class="st0" d="M48,136.6c-2.6,0-4.8,2.1-4.8,4.8c0,2.6,2.1,4.8,4.8,4.8c2.6,0,4.8-2.1,4.8-4.8c0,0,0,0,0,0
			C52.8,138.8,50.6,136.6,48,136.6z"/>
		<circle class="st0" cx="99.8" cy="141.4" r="3.4"/>
		<path class="st0" d="M87.6,156.3c-3.3,3.9-2.8,9.7,1.1,13c3.9,3.3,9.7,2.8,13-1.1c1.3-1.6,2.1-3.5,2.2-5.5c0-0.1,0-0.3,0-0.4
			s0-0.3,0-0.4c-0.2-3.8-2.6-7-6.2-8.3C94.1,152.3,90.1,153.3,87.6,156.3z M98.3,162.3c0,2-1.6,3.7-3.7,3.7c-2,0-3.7-1.6-3.7-3.7
			c0-2,1.6-3.7,3.7-3.7c0,0,0,0,0,0C96.6,158.6,98.3,160.2,98.3,162.3L98.3,162.3z"/>
		<path class="st0" d="M52.5,86l7.1,2.5c1.5,0.4,3-0.5,3.4-1.9c0.4-1.5-0.5-3-2-3.4l-19.6-7l-30.9-11l-7.1-2.5
			c-1.5-0.4-3,0.5-3.4,1.9c-0.4,1.5,0.5,3,1.9,3.4l19.6,7L52.5,86z"/>
		<path class="st0" d="M74.8,94c1.5,0.4,3-0.5,3.4-1.9c0.4-1.5-0.5-3-1.9-3.4l-6.9-2.5c-1.5-0.3-3,0.6-3.3,2.1
			c-0.3,1.4,0.5,2.8,1.8,3.2L74.8,94z"/>
		<path class="st0" d="M173.1,98.1l-6.4-2.3c-1.5-0.4-3,0.5-3.4,1.9c-0.4,1.5,0.5,3,1.9,3.4l6.4,2.3c1.5,0.3,3-0.6,3.3-2.1
			C175.2,99.9,174.4,98.5,173.1,98.1z"/>
		<path class="st0" d="M35.4,41.4l6.4,2.3c1.5,0.5,3-0.3,3.5-1.7s-0.3-3-1.7-3.5c-0.1,0-0.2-0.1-0.3-0.1L36.9,36
			c-1.5-0.4-3,0.5-3.4,1.9C33.1,39.4,34,40.9,35.4,41.4z"/>
		<path class="st0" d="M162.1,159.6l-31.9-11.4l-4.5-1.6c-1.5-0.4-3,0.5-3.4,1.9c-0.4,1.5,0.5,3,2,3.4l31.9,11.4l4.5,1.6
			c1.5,0.4,3-0.5,3.4-1.9C164.5,161.5,163.6,160,162.1,159.6z"/>
		<path class="st0" d="M127.8,161.8c-0.5,0.4-1,0.9-1.5,1.3c-0.3,0.2-0.6,0.4-0.8,0.7l-0.3,0.3l0,0c-1.1,0.8-2.2,1.6-3.3,2.4
			c-2.4,1.6-4.8,3-7.4,4.3l-1.8,0.9l-1,0.4l-0.4,0.2c-1.3,0.6-2.6,1-3.9,1.5c-2.8,0.9-5.6,1.7-8.4,2.3c-0.7,0.1-1.3,0.3-2,0.4
			c-0.4,0.1-0.7,0.1-1.1,0.2l-0.8,0.1l-0.7,0.1l-1,0.1c-0.8,0.1-1.6,0.1-2.4,0.2c-3,0.2-5.9,0.2-8.9,0.1c-0.7,0-1.5-0.1-2.2-0.2
			l-1-0.1l-0.5-0.1c-0.2-0.2-1.7-0.3-2-0.3c-0.8-0.1-1.6-0.3-2.3-0.4c-2.8-0.6-5.6-1.3-8.3-2.3l-2-0.7l-0.9-0.3l-0.4-0.2l-0.4-0.2
			l-0.5-0.2l-0.8-0.4c-0.7-0.3-1.4-0.6-2.1-1c-2.5-1.3-4.9-2.7-7.2-4.2c-1.1-0.7-2.2-1.5-3.2-2.3l-0.3-0.3l-0.8-0.7
			c-0.6-0.5-1.2-1-1.7-1.5c-2.1-1.8-4.1-3.8-5.9-5.9c-0.4-0.5-0.9-1-1.3-1.5l-0.7-0.8L37,153l-0.1-0.2c0,0-0.4-0.5-0.4-0.6l-0.6-0.9
			c-0.4-0.6-0.8-1.2-1.2-1.8c-1.6-2.4-3-4.8-4.3-7.4c-0.6-1.1-1.2-2.3-1.7-3.5c0.2-1.2,0.5-2.4,0.9-3.5c0.2-0.8,0.5-1.6,0.8-2.4
			c0.1-0.4,0.3-0.7,0.4-1.1s0.2-0.5,0.3-0.7c0.9-2,2-3.9,3.3-5.7l0.5-0.7l0.1-0.1c0.4-0.5,0.8-0.9,1.2-1.4c0.8-0.9,1.7-1.8,2.6-2.7
			c0.6,1.5,1.6,2.7,2.8,3.8c4.3,3.6,10.7,3.1,14.4-1.3c1.5-1.8,2.3-4,2.4-6.2c0-1.2-0.1-2.4-0.5-3.5h0.8c1.6-0.1,3.2,0,4.8,0
			c1.2,0.1,2.3,0.2,3.4,0.3l0,0l0.8,0.1c0.6,0.1,1.1,0.2,1.6,0.3c1,0.2,2,0.5,2.9,0.8c0.4,0.1,0.9,0.3,1.3,0.4l0.6,0.2l0.4,0.2
			l0.1,0.1l0.6,0.3l1.2,0.6c0.8,0.4,1.5,0.8,2.2,1.3s1.4,0.9,2.1,1.4l0.8,0.6c-0.3-0.2-0.5-0.4-0.1-0.1l0.1,0.1l0.2,0.2l-0.2-0.1
			l0.4,0.3c6.2,5,11.9,10.5,19.1,14.2c12.5,6.4,26.8,8.3,40.6,8.8h0.8c-0.8,1.5-1.7,3.1-2.6,4.5l1.1,0.4l7,2.5
			c1.8-3,3.4-6.2,4.8-9.5c0.2-0.3,0.3-0.6,0.4-0.9c2.7-6.8,4.3-13.9,4.8-21.2c1.9-26.9-11.5-52.6-34.7-66.4c-2-1.2-4-2.3-6.1-3.2
			V33.4c5.6-1.4,9.8-6.2,10.2-12c0.1-2.7,0.1-5.3,0-8c-0.1-6.9-5.4-12.7-12.3-13.3c-1.2-0.1-2.3,0-3.5,0H71.8c-4.2,0-8.4,0-12.6,0
			c-5.1,0-9.7,2.8-12.1,7.3c-1.8,3.8-1.5,7.9-1.5,11.9c-0.1,2,0.2,4,0.9,5.9c1.5,4.2,5.1,7.2,9.4,8.2v16.2
			c-9.5,4.5-18,11.1-24.7,19.3l8.4,3c0.4-0.4,0.8-0.9,1.2-1.3c2.1-2.1,4.3-4.1,6.6-6l0.5-0.4l0.1-0.1l0.6-0.5
			c0.6-0.5,1.2-0.9,1.8-1.3c1.3-0.9,2.5-1.7,3.8-2.5c2.5-1.5,5.2-2.8,7.9-4c1.4-0.8,2.2-2.3,2.1-3.9V35.6l-5.1-1.9h49.4v18.5l0,0
			c-0.1,1.5,0.7,2.9,2,3.6c2.8,1.2,5.6,2.6,8.2,4.1c1.3,0.8,2.5,1.6,3.7,2.4c0.6,0.4,1.2,0.9,1.8,1.3l0.4,0.3l0.3,0.2l0.5,0.4
			c2.3,1.9,4.5,3.9,6.6,6c1.1,1.1,2.1,2.2,3,3.4c0.4,0.5,0.8,1,1.2,1.5l0.3,0.4c0.3,0.3,0.5,0.7,0.8,1c1.7,2.4,3.3,5,4.7,7.6
			c0.7,1.3,1.4,2.7,2,4.1c0.1,0.3,0.2,0.5,0.3,0.8l0.2,0.5c0.3,0.8,0.6,1.5,0.9,2.3c1,2.9,1.9,5.8,2.5,8.8c0.3,1.4,0.6,2.9,0.8,4.3
			c0,0.1,0.1,0.5,0.1,0.8s0.1,0.7,0.1,1c0.1,0.8,0.2,1.7,0.2,2.6c0.2,3.1,0.2,6.1-0.1,9.2c-0.1,0.7-0.1,1.4-0.2,2.1
			c0,0.4-0.1,0.7-0.1,1.1c0,0.2-0.1,0.3-0.1,0.5l0,0c-0.2,1.4-0.5,2.8-0.8,4.2c-0.6,2.7-1.3,5.4-2.3,8.1c-3.9-0.1-7.8-0.2-11.7-0.5
			c-2-0.2-4.1-0.4-6.1-0.6H128l-0.4-0.1l-1.3-0.2c-0.9-0.1-1.8-0.3-2.7-0.5c-3.2-0.6-6.4-1.4-9.6-2.3c-1.3-0.4-2.6-0.9-3.9-1.4
			c-0.5-0.2-1-0.4-1.6-0.6l-0.3-0.1l-0.9-0.4c-2.1-1-4.2-2.1-6.2-3.3c-0.9-0.6-1.7-1.1-2.6-1.7l-1.2-0.8l-0.5-0.4
			c-2.8-2.3-5.5-4.7-8.2-6.9c-2.8-2.5-6-4.6-9.4-6.3c-4.4-2-9-3.3-13.8-3.6c-13.2-1.2-27.1,2.4-35.9,12.8c-1.9,2.3-3.6,4.7-5,7.4
			c-0.2-0.9-0.3-1.8-0.5-2.7v-0.1c0-0.1,0-0.2,0-0.2l-0.1-1.1c-0.1-0.8-0.1-1.5-0.2-2.2c-0.2-3.1-0.2-6.3,0-9.4
			c0.1-0.7,0.1-1.5,0.2-2.2c0-0.4,0.1-0.8,0.1-1.2l0.1-0.5c0.2-1.5,0.5-3.1,0.8-4.6c0.7-3.1,1.5-6.1,2.6-9c0.2-0.7,0.5-1.3,0.8-2
			l0.2-0.5c0.1-0.3,0.3-0.6,0.4-0.9c0.6-1.4,1.3-2.8,2-4.1c0.4-0.7,0.8-1.4,1.2-2.2l-8-2.8c-10.3,18.6-11.7,40.7-4,60.5
			c0.1,0.5,0.3,1,0.6,1.4c0.7,1.8,1.5,3.5,2.4,5.2c17.9,34.9,60.6,48.8,95.7,31.1c8.1-4.1,15.3-9.6,21.3-16.4l-8.5-3.1
			C130.3,159.4,129.1,160.6,127.8,161.8z M117.8,23.8l0.2-0.3C118,23.5,117.9,23.6,117.8,23.8L117.8,23.8z M118.5,22.6l0.2-0.4
			C118.6,22.4,118.6,22.5,118.5,22.6L118.5,22.6z M118.9,21.4L119,21C119,21.1,119,21.2,118.9,21.4L118.9,21.4z M119,12.9
			c0-0.1,0-0.3,0-0.4C119,12.6,119,12.7,119,12.9L119,12.9z M118.7,11.6c0-0.1-0.1-0.2-0.1-0.2C118.6,11.4,118.6,11.5,118.7,11.6
			L118.7,11.6z M114.8,8.4l-0.4-0.1C114.6,8.4,114.7,8.4,114.8,8.4L114.8,8.4z M58.6,8.4l-0.5,0.1C58.3,8.4,58.4,8.3,58.6,8.4z
			 M56.1,9.4l-0.3,0.2C55.9,9.5,56,9.4,56.1,9.4L56.1,9.4z M54.1,20.9c0,0,0,0.1,0,0.2C54.1,21.1,54.1,21,54.1,20.9L54.1,20.9z
			 M114.5,25.5l0.4-0.1C114.8,25.4,114.7,25.4,114.5,25.5L114.5,25.5z M116,25L116,25c-0.3,0.1-0.6,0.2-0.9,0.3l-0.3,0.1l-0.3,0.1
			H114H59.9c-0.2,0-0.5,0-0.7,0h-0.7l0,0c-0.5-0.1-0.9-0.2-1.4-0.3l-0.3-0.2c-0.3-0.1-0.5-0.3-0.8-0.5l0,0l-0.1-0.1
			c-0.2-0.2-0.4-0.4-0.6-0.6l-0.1-0.1l0,0c-0.2-0.3-0.3-0.5-0.5-0.8l-0.2-0.3c-0.1-0.2-0.1-0.5-0.2-0.7s-0.1-0.3-0.2-0.5v-0.2
			c0-0.3,0-0.6,0-0.9v-6.9c0-0.2,0-0.5,0-0.6c0-0.1,0.1-0.3,0.1-0.4c0.1-0.3,0.2-0.6,0.3-0.9l0,0v-0.1c0.2-0.3,0.4-0.7,0.6-1.1
			l0.3-0.3c0.1-0.1,0.2-0.2,0.3-0.4c0.1-0.1,0.3-0.2,0.4-0.3c0.2-0.1,0.8-0.6,1-0.6l-0.4,0.2l0.4-0.2c0.3-0.1,0.5-0.1,0.7-0.2
			l0.3-0.1l0.3-0.1H59h55.2h0.3h0.3c0.2,0.1,0.3,0.1,0.4,0.1s0.4,0.1,0.6,0.2c0.4,0.2,0.4,0.1-0.2-0.1c0.3,0,1,0.6,1.3,0.8l0,0
			l0.1,0.1l0.6,0.6l0.1,0.1l0,0c0.2,0.3,0.3,0.5,0.5,0.8c0,0,0.1,0.1,0.2,0.3v0.1c0.1,0.2,0.1,0.4,0.2,0.6s0.1,0.3,0.1,0.4
			s0,0.4,0,0.6s0,0.3,0,0.5v2c0,1.5,0,3,0,4.6v0.3c0,0.1,0,0.3,0,0.5c0,0.2-0.1,0.4-0.1,0.6c0,0.2-0.1,0.4-0.2,0.6s-0.1,0.2-0.1,0.3
			s-0.1,0.2-0.1,0.2s-0.2,0.3-0.3,0.4s-0.2,0.3-0.3,0.5l-0.1,0.2c-0.1,0.1-0.3,0.3-0.4,0.4c-0.1,0.1-0.2,0.2-0.3,0.3
			c-0.3,0.2-0.7,0.4-1.1,0.6L116,25z M45,116.4l1-0.4l0.2-0.1l0.2-0.1c0.7-0.3,1.5-0.6,2.2-0.8c1.1-0.3,2.2-0.6,3.4-0.9
			c0.4,0.7,0.7,1.6,0.7,2.4c0,1.8-1.1,3.5-2.7,4.3c-1.6,0.7-3.4,0.5-4.8-0.6c-0.2-0.2-0.4-0.3-0.5-0.5s-0.2-0.2-0.3-0.3l0,0
			c-0.1-0.2-0.3-0.4-0.4-0.6c0,0-0.3-0.7-0.2-0.5c-0.1-0.3-0.2-0.6-0.2-0.9C43.9,117,44.5,116.7,45,116.4z M78.2,176.6
			c-0.7-0.1,0.1-0.1,0.2,0H78.2z"/>
	</g>
</g>
</svg>
