<svg xmlns="http://www.w3.org/2000/svg" width="43.928" height="14.111" viewBox="0 0 43.928 14.111">
  <g id="Groupe_5745" data-name="Groupe 5745" transform="translate(-211.328 -407.272)">
    <g id="Groupe_12" data-name="Groupe 12" transform="translate(224.468 409.855)">
      <path id="Tracé_52" data-name="Tracé 52" d="M490.548,479.35a2.51,2.51,0,0,0-1.5-.434,3.44,3.44,0,0,0-1.676.3,2.906,2.906,0,0,0-1.251,2.727c-.009.983.122,2.206,1.083,2.733a3.432,3.432,0,0,0,1.588.316,8.107,8.107,0,0,0,1.758-.159q.218-.045.432-.1l.016-.006a.086.086,0,0,0,.064-.1l-.113-.994a.111.111,0,0,0-.138-.105,6.978,6.978,0,0,1-1.737.222,2.433,2.433,0,0,1-.777-.1.784.784,0,0,1-.472-.468,2.192,2.192,0,0,1-.125-.712h3.446a.112.112,0,0,0,.109-.109,6.366,6.366,0,0,0-.036-1.714A2.022,2.022,0,0,0,490.548,479.35Zm-2.666,2.015H487.7c.027-.465.15-.979.647-1.136a1.7,1.7,0,0,1,.836-.037.724.724,0,0,1,.539.4,1.907,1.907,0,0,1,.137.773Z" transform="translate(-478.352 -476.045)" fill="#ffed00"/>
      <path id="Tracé_53" data-name="Tracé 53" d="M557.575,450.06v-1.052a.115.115,0,0,0-.114-.114h-1.836v-6.612c0-.31.013-.623,0-.933,0,0,0-.009,0-.013a.116.116,0,0,0-.114-.114h-3.263a.116.116,0,0,0-.114.114v1.052a.116.116,0,0,0,.114.114h1.73v6.612c0,.31-.013.623,0,.933,0,0,0,.009,0,.013a.116.116,0,0,0,.114.114h3.369A.116.116,0,0,0,557.575,450.06Z" transform="translate(-539.343 -441.222)" fill="#ffed00"/>
      <path id="Tracé_54" data-name="Tracé 54" d="M455.274,467.134l.569.2a.231.231,0,0,0,.281-.16.233.233,0,0,0-.16-.281l-.569-.2a.231.231,0,0,0-.282.16A.233.233,0,0,0,455.274,467.134Z" transform="translate(-449.698 -464.745)" fill="#ffed00"/>
      <path id="Tracé_55" data-name="Tracé 55" d="M602.96,573.24l-.569-.2a.231.231,0,0,0-.281.16.233.233,0,0,0,.16.281l.569.2a.231.231,0,0,0,.281-.16A.233.233,0,0,0,602.96,573.24Z" transform="translate(-585.509 -562.997)" fill="#ffed00"/>
      <path id="Tracé_56" data-name="Tracé 56" d="M661.472,498.29l-2.62-.935-.37-.132a.231.231,0,0,0-.281.16.234.234,0,0,0,.16.282l2.62.935.37.132a.231.231,0,0,0,.281-.16A.233.233,0,0,0,661.472,498.29Z" transform="translate(-637.332 -492.952)" fill="#ffed00"/>
      <path id="Tracé_57" data-name="Tracé 57" d="M676.008,480.893l.232-.623.3-.8c.048-.13.1-.259.146-.392,0-.006,0-.012.007-.018a.119.119,0,0,0-.111-.148h-1.466A.121.121,0,0,0,675,479l-.45,1.311-.019.054.03.011Z" transform="translate(-652.431 -476.045)" fill="#ffed00"/>
      <path id="Tracé_58" data-name="Tracé 58" d="M625.229,481.333q-.065.188-.131.375c-.181.515-.331,1.038-.468,1.566-.125-.492-.255-.981-.418-1.462l-.16-.468-.624-1.833-.174-.511a.122.122,0,0,0-.11-.088h-1.5a.119.119,0,0,0-.077.034.1.1,0,0,0-.033.114l.688,1.973,1.089,3.121.25.715a.117.117,0,0,0,.109.083h.641l-.394.13a5.794,5.794,0,0,1-.287.621.911.911,0,0,1-.7.534,3.418,3.418,0,0,1-.994-.042c-.054-.01-.131.015-.14.079l-.141,1.033a.117.117,0,0,0,.079.14,3.886,3.886,0,0,0,1.171.119,2.765,2.765,0,0,0,1.015-.19,2.654,2.654,0,0,0,1.278-1.546c.163-.4.3-.8.451-1.2l.787-2.116.247-.664Z" transform="translate(-603.456 -476.045)" fill="#ffed00"/>
      <path id="Tracé_59" data-name="Tracé 59" d="M701.981,539.9l-2.62-.935-.37-.132a.231.231,0,0,0-.282.16.233.233,0,0,0,.16.282l.484.173h0l1.421.507h0l.715.255.371.132a.231.231,0,0,0,.281-.16A.234.234,0,0,0,701.981,539.9Z" transform="translate(-674.759 -531.397)" fill="#ffed00"/>
      <path id="Tracé_60" data-name="Tracé 60" d="M706.644,551.977l-.237.353a.115.115,0,0,0,.1.172h1.219c.091,0,.185.008.276,0a.138.138,0,0,0,.062-.019l-.525-.187Z" transform="translate(-681.863 -543.55)" fill="#ffed00"/>
      <path id="Tracé_61" data-name="Tracé 61" d="M713.921,484.821l-.689-1-1.094-1.59-.215-.312.622-.914,1.061-1.56.244-.358a.119.119,0,0,0-.1-.177h-1.479c-.081,0-.116.055-.154.116l-.186.3-.528.844c-.166.265-.333.529-.487.8l-.236-.359-.659-1c-.136-.208-.267-.42-.41-.624-.056-.08-.135-.07-.22-.07H707.9a.118.118,0,0,0-.1.177l.647.963,1.026,1.527.2.3-.641.956-.51.76.223.08,1.159.414.257-.432c.166-.279.352-.549.5-.836l.939,1.448c.144.222.282.448.432.665.056.081.133.068.219.068h1.566A.115.115,0,0,0,713.921,484.821Z" transform="translate(-683.151 -476.041)" fill="#ffed00"/>
      <path id="Tracé_62" data-name="Tracé 62" d="M388.934,443.365a.231.231,0,0,0,.282-.16.233.233,0,0,0-.16-.282l-1.609-.574-2.542-.908-.585-.209a.231.231,0,0,0-.282.16.234.234,0,0,0,.16.282l1.609.574,2.542.908Z" transform="translate(-384.029 -441.222)" fill="#ffed00"/>
      <path id="Tracé_63" data-name="Tracé 63" d="M401.913,441.884v-.547a.116.116,0,0,0-.114-.114H400.38a.106.106,0,0,0-.08.033.1.1,0,0,0-.028.043l1,.356Z" transform="translate(-399.036 -441.222)" fill="#ffed00"/>
      <path id="Tracé_64" data-name="Tracé 64" d="M447.476,539.857l-2.62-.935-.37-.132a.229.229,0,0,0-.122.441l2.62.935.371.132a.231.231,0,0,0,.281-.16A.233.233,0,0,0,447.476,539.857Z" transform="translate(-439.618 -531.356)" fill="#ffed00"/>
      <path id="Tracé_65" data-name="Tracé 65" d="M403.611,459.442a3.314,3.314,0,0,1,.061.914v1.613l.1.037.546.195,1,.357v-2.78a2.148,2.148,0,0,0-.6-1.751,2.1,2.1,0,0,0-1.484-.363,3.316,3.316,0,0,0-1.422.474,2.191,2.191,0,0,0-.43.347,4.291,4.291,0,0,1,.335-.4c.024-.441.041-.882.041-1.325V456.6l-1.647-.588v6.64c0,.351-.015.706,0,1.058,0,0,0,.01,0,.015a.116.116,0,0,0,.114.114h1.418a.116.116,0,0,0,.114-.114v-4.188a2.37,2.37,0,0,1,1.1-.511.789.789,0,0,1,.525.087A.552.552,0,0,1,403.611,459.442Z" transform="translate(-398.884 -454.888)" fill="#ffed00"/>
      <path id="Tracé_66" data-name="Tracé 66" d="M446.956,548.652v.664a.116.116,0,0,0,.114.114h1.418a.116.116,0,0,0,.114-.114v-.076l-.919-.328Z" transform="translate(-442.168 -540.478)" fill="#ffed00"/>
    </g>
    <g id="Groupe_13" data-name="Groupe 13" transform="translate(211.328 407.272)">
      <path id="Tracé_67" data-name="Tracé 67" d="M347.968,510.9a3.949,3.949,0,0,1,.037.549.212.212,0,0,0,.424,0,4.73,4.73,0,0,0-.052-.661.213.213,0,0,0-.261-.148A.217.217,0,0,0,347.968,510.9Z" transform="translate(-337.568 -502.773)" fill="#ffed00"/>
      <path id="Tracé_68" data-name="Tracé 68" d="M320.866,471.652c-.239-.131-.453.235-.214.366a3.9,3.9,0,0,1,1.836,2.2.216.216,0,0,0,.261.148.214.214,0,0,0,.148-.26A4.333,4.333,0,0,0,320.866,471.652Z" transform="translate(-312.237 -466.727)" fill="#ffed00"/>
      <path id="Tracé_69" data-name="Tracé 69" d="M292.728,527.208l0,0h0Z" transform="translate(-286.535 -518.083)" fill="#ffed00"/>
      <path id="Tracé_70" data-name="Tracé 70" d="M275.329,533.129a.259.259,0,1,0-.259.259A.259.259,0,0,0,275.329,533.129Z" transform="translate(-269.982 -523.314)" fill="#ffed00"/>
      <circle id="Ellipse_4" data-name="Ellipse 4" cx="0.152" cy="0.152" r="0.152" transform="translate(5.454 10.702)" fill="#ffed00"/>
      <path id="Tracé_71" data-name="Tracé 71" d="M320.769,560.4a.387.387,0,1,0,.387-.387A.387.387,0,0,0,320.769,560.4Z" transform="translate(-312.442 -548.387)" fill="#ffed00"/>
      <circle id="Ellipse_5" data-name="Ellipse 5" cx="0.189" cy="0.189" r="0.189" transform="translate(5.159 11.965)" fill="#ffed00"/>
      <path id="Tracé_72" data-name="Tracé 72" d="M254.864,543.9a.363.363,0,1,0,.363.363A.363.363,0,0,0,254.864,543.9Z" transform="translate(-251.216 -533.508)" fill="#ffed00"/>
      <circle id="Ellipse_6" data-name="Ellipse 6" cx="0.257" cy="0.257" r="0.257" transform="translate(7.333 10.502)" fill="#ffed00"/>
      <path id="Tracé_73" data-name="Tracé 73" d="M296.9,560.508a.7.7,0,1,0,1.237.486.248.248,0,0,0,0-.032.231.231,0,0,0,0-.032.714.714,0,0,0-.47-.632A.7.7,0,0,0,296.9,560.508Zm.815.455a.28.28,0,1,1-.28-.28A.282.282,0,0,1,297.717,560.962Z" transform="translate(-290.238 -548.619)" fill="#ffed00"/>
      <path id="Tracé_74" data-name="Tracé 74" d="M215.326,471.561l.542.194a.214.214,0,0,0,.261-.148.216.216,0,0,0-.148-.261l-1.489-.532-2.353-.84-.542-.194a.212.212,0,0,0-.113.409l1.489.532Z" transform="translate(-211.328 -465.016)" fill="#ffed00"/>
      <path id="Tracé_75" data-name="Tracé 75" d="M277.8,493.945a.214.214,0,0,0,.261-.148.216.216,0,0,0-.148-.26l-.527-.188a.214.214,0,0,0-.261.148.216.216,0,0,0,.148.261Z" transform="translate(-272.116 -486.79)" fill="#ffed00"/>
      <path id="Tracé_76" data-name="Tracé 76" d="M375.265,503.137l-.486-.174a.214.214,0,0,0-.261.148.216.216,0,0,0,.148.261l.486.174a.214.214,0,0,0,.261-.148A.216.216,0,0,0,375.265,503.137Z" transform="translate(-362.095 -495.674)" fill="#ffed00"/>
      <path id="Tracé_77" data-name="Tracé 77" d="M244.862,443.551l.486.173a.214.214,0,0,0,.261-.148.216.216,0,0,0-.148-.261l-.486-.173a.214.214,0,0,0-.261.148A.216.216,0,0,0,244.862,443.551Z" transform="translate(-242.167 -440.404)" fill="#ffed00"/>
      <path id="Tracé_78" data-name="Tracé 78" d="M336.6,554.728l-2.425-.866-.343-.122a.212.212,0,1,0-.113.408l2.425.866.343.122a.212.212,0,1,0,.113-.408Z" transform="translate(-324.267 -542.587)" fill="#ffed00"/>
      <path id="Tracé_79" data-name="Tracé 79" d="M235.069,419.579l-.115.1-.063.051-.027.021h0c-.083.063-.167.123-.253.181a5.1,5.1,0,0,1-.562.327l-.137.066-.075.034-.029.013a3.141,3.141,0,0,1-.3.113,5.087,5.087,0,0,1-.642.174l-.154.029-.083.013-.057.008-.051.006-.073.008q-.091.009-.183.015a5.19,5.19,0,0,1-.68,0l-.171-.014-.073-.008-.036,0c-.013-.017-.129-.019-.155-.024q-.089-.015-.177-.033a5.091,5.091,0,0,1-.63-.173l-.155-.056-.066-.026-.033-.013-.034-.014-.041-.018-.064-.029q-.08-.037-.158-.076a5.111,5.111,0,0,1-.551-.323c-.084-.056-.165-.115-.246-.176l-.026-.02-.063-.051q-.067-.055-.132-.112a5.139,5.139,0,0,1-.449-.448q-.05-.056-.1-.114l-.051-.062-.022-.027-.01-.012-.033-.043-.048-.065q-.048-.066-.093-.133a5.091,5.091,0,0,1-.33-.56,2.932,2.932,0,0,1-.127-.265c.018-.09.041-.178.067-.266q.028-.092.062-.182c.01-.028.022-.056.033-.083l.024-.053a2.817,2.817,0,0,1,.249-.435l.038-.053.005-.007c.029-.035.057-.07.087-.1a2.438,2.438,0,0,1,.2-.2.741.741,0,0,0,.213.285.776.776,0,0,0,1.275-.57.742.742,0,0,0-.038-.265l.065,0c.122,0,.244,0,.366,0,.088,0,.174.013.262.022h0l.061.01.124.024q.113.024.223.059l.1.034.043.016.028.011.011,0,.045.021.092.047c.058.031.115.064.17.1s.108.071.16.109l.057.043c-.021-.016-.039-.031-.005,0l.008.006.016.012-.014-.01.032.025a8.849,8.849,0,0,0,1.455,1.083,7.307,7.307,0,0,0,3.089.668l.06,0q-.093.177-.2.346l.082.029.53.189a5.283,5.283,0,0,0,.362-.724.291.291,0,0,0,.028-.071,5.541,5.541,0,0,0,.366-1.612,5.426,5.426,0,0,0-2.632-5.046,5.126,5.126,0,0,0-.464-.246v-1.232a1.028,1.028,0,0,0,.779-.912,5.872,5.872,0,0,0,0-.612,1.028,1.028,0,0,0-.942-1.011c-.088-.008-.177,0-.265,0h-3.015c-.319,0-.637,0-.956,0a1.025,1.025,0,0,0-.919.557,2.005,2.005,0,0,0-.11.906,1.191,1.191,0,0,0,.068.452.974.974,0,0,0,.715.621v1.235a5.442,5.442,0,0,0-1.878,1.469l.638.228.091-.1a5.146,5.146,0,0,1,.5-.458l.039-.031.006,0,.048-.036q.07-.052.141-.1.143-.1.292-.187a5.19,5.19,0,0,1,.6-.3.313.313,0,0,0,.157-.294v-1.244l-.39-.142h3.759v1.406l0,0a.3.3,0,0,0,.154.277,5.176,5.176,0,0,1,.621.317q.144.086.281.181.071.049.141.1l.03.023.023.018.039.031a5.139,5.139,0,0,1,.5.459q.119.125.23.258c.032.038.063.078.094.117l.024.032.058.08a5.119,5.119,0,0,1,.359.579q.082.154.153.314l.026.059.016.038q.035.087.067.176a5.087,5.087,0,0,1,.191.671c.023.109.042.219.058.329l.007.057c0,.026.006.052.008.078q.01.1.016.2a5.185,5.185,0,0,1,0,.7q-.006.079-.014.158,0,.042-.01.085a.236.236,0,0,0,0,.035h0q-.024.161-.057.32a5.073,5.073,0,0,1-.172.615c-.3,0-.594-.016-.891-.04q-.232-.019-.464-.048h-.01l-.034,0-.1-.015-.208-.035a6.267,6.267,0,0,1-.728-.176q-.151-.047-.3-.1l-.119-.047-.019-.008-.069-.031a4.152,4.152,0,0,1-.468-.254q-.1-.063-.2-.131l-.089-.065-.04-.03c-.213-.171-.416-.354-.627-.528a3.464,3.464,0,0,0-.713-.481,3.074,3.074,0,0,0-1.053-.276,3.149,3.149,0,0,0-2.731.975,3.29,3.29,0,0,0-.381.56q-.019-.1-.034-.207V416.6l0-.018q-.005-.042-.01-.085-.009-.085-.015-.17a5.171,5.171,0,0,1,0-.714q.006-.085.014-.169,0-.045.01-.091c0-.012,0-.025,0-.037.018-.117.037-.233.062-.349a5.081,5.081,0,0,1,.2-.682q.028-.077.059-.153l.016-.038.031-.071q.072-.159.154-.313.044-.083.092-.164l-.608-.217a5.435,5.435,0,0,0-.3,4.6.27.27,0,0,0,.043.106q.083.2.183.4a5.433,5.433,0,0,0,7.279,2.369A5.4,5.4,0,0,0,236,419.543l-.65-.232C235.261,419.4,235.167,419.493,235.069,419.579Zm-.759-10.5.017-.023A.058.058,0,0,1,234.31,409.075Zm.055-.084.011-.028A.066.066,0,0,1,234.365,408.991Zm.03-.092,0-.036A.1.1,0,0,1,234.4,408.9Zm0-.647,0-.033A.075.075,0,0,1,234.4,408.252Zm-.024-.1-.007-.016A.047.047,0,0,1,234.376,408.15Zm-.289-.239-.032,0A.072.072,0,0,1,234.087,407.911Zm-4.283,0-.034,0A.092.092,0,0,1,229.8,407.908Zm-.187.073-.023.017A.059.059,0,0,1,229.617,407.981Zm-.154.881a.148.148,0,0,0,0,.017A.039.039,0,0,1,229.463,408.862Zm4.6.345.034,0A.089.089,0,0,1,234.059,409.207Zm.113-.03h0c-.022.007-.044.015-.067.02l-.023.005-.023,0h-4.262a.7.7,0,0,1-.1-.026l-.024-.017c-.02-.011-.039-.024-.058-.036h0l-.006-.006c-.015-.016-.032-.033-.048-.048l-.006-.005v0c-.012-.02-.025-.038-.036-.058l-.015-.022a.5.5,0,0,1-.015-.051c0-.008-.009-.025-.013-.041s0-.009,0-.015c0-.022,0-.044,0-.066,0-.118,0-.236,0-.355,0-.047,0-.094,0-.141,0-.008,0-.016,0-.025s0-.036,0-.049,0-.022.007-.033.013-.045.02-.067v0l0-.006c.015-.024.028-.057.047-.081l.023-.021.026-.029.033-.023c.017-.011.06-.046.08-.045l-.034.014.033-.012.056-.016.023-.005.023,0h4.261l.021,0,.034.011.044.014q.049.019-.012-.006c.025,0,.08.045.1.057h0l.006.006.048.048.006.006h0c.012.02.025.038.036.058l.012.02,0,.009c.005.015.01.029.014.044s.007.021.011.034,0,.03,0,.046,0,.026,0,.039c0,.051,0,.1,0,.152,0,.116,0,.232,0,.347,0,.008,0,.017,0,.025s0,.023,0,.036-.006.031-.01.046-.008.03-.013.045l-.007.022-.007.018-.02.031-.025.038-.01.014-.029.026-.021.023c-.025.019-.056.031-.081.046Zm-5.4,6.952.068-.032.013-.006.018-.007q.083-.033.169-.06c.084-.027.169-.049.255-.068a.337.337,0,0,1,.051.183.355.355,0,0,1-.209.323.365.365,0,0,1-.361-.043c-.015-.012-.028-.026-.041-.039l-.022-.024,0,0a.487.487,0,0,1-.03-.049.358.358,0,0,0-.018-.039.42.42,0,0,1-.018-.07C228.688,416.171,228.731,416.149,228.775,416.128Zm2.519,4.58c-.05-.006,0-.006.012,0Z" transform="translate(-225.347 -407.272)" fill="#ffed00"/>
    </g>
  </g>
</svg>
