<?xml version="1.0" encoding="utf-8"?>
<!-- Generator: Adobe Illustrator 23.0.3, SVG Export Plug-In . SVG Version: 6.00 Build 0)  -->
<svg version="1.1" id="Calque_1" xmlns="http://www.w3.org/2000/svg" xmlns:xlink="http://www.w3.org/1999/xlink" x="0px" y="0px"
	 viewBox="0 0 32 30.5" style="enable-background:new 0 0 32 30.5;" xml:space="preserve">
<style type="text/css">
	.st0{fill:#FFFFFF;}
</style>
<g id="Icon" transform="translate(-9222.92 -213.571)">
	<path id="Tracé_27" class="st0" d="M9230.8,224l-5.2-1.9c-1.1-0.3-2.3,0.4-2.6,1.5c-0.3,1.1,0.4,2.3,1.5,2.6l5.2,1.9
		c1.1,0.3,2.3-0.4,2.6-1.5C9232.6,225.4,9231.9,224.3,9230.8,224z"/>
	<path id="Tracé_28" class="st0" d="M9253.4,231.5l-5.2-1.9c-1.1-0.3-2.3,0.4-2.6,1.5c-0.3,1.1,0.4,2.3,1.5,2.6l5.2,1.9
		c1.1,0.3,2.3-0.4,2.6-1.5C9255.1,233,9254.5,231.8,9253.4,231.5z"/>
	<path id="Tracé_29" class="st0" d="M9251.9,227.5c1.1,0.3,2.3-0.4,2.6-1.5c0.3-1.1-0.4-2.3-1.5-2.6l-24-8.6l-3.4-1.2
		c-1.1-0.3-2.3,0.4-2.6,1.5c-0.3,1.1,0.4,2.3,1.5,2.6l24,8.6L9251.9,227.5z"/>
	<path id="Tracé_30" class="st0" d="M9251.9,244c1.1,0.3,2.3-0.4,2.6-1.5c0.3-1.1-0.4-2.3-1.5-2.6l-24-8.6l-3.4-1.2
		c-1.1-0.3-2.3,0.4-2.6,1.5c-0.3,1.1,0.4,2.3,1.5,2.6l24,8.6L9251.9,244z"/>
</g>
</svg>
